<svg id="Layer_1" data-name="Layer 1" xmlns="http://www.w3.org/2000/svg" viewBox="0 0 974.37 256.11"><defs><style>.cls-1,.cls-7{fill:#e5a724;}.cls-2{fill:#4e4d4d;}.cls-3{fill:#807f80;}.cls-4{fill:#99a539;}.cls-5{fill:#959743;}.cls-6{fill:#e6e7e8;}.cls-7{fill-rule:evenodd;}.cls-8{fill:#98a539;}</style></defs><polygon class="cls-1" points="573.7 98.86 572.43 104.64 558.23 104.64 558.23 119.36 552.49 120.45 552.49 104.64 537.11 104.64 538.21 98.86 552.49 98.86 552.49 84.14 558.23 83.05 558.23 98.86 573.7 98.86"/><path class="cls-2" d="M253.79,200.4,253.72,145h2.9v52.53h13.52l.11,2.88Zm33,0,8.47-55.33h3.16l9.12,55.33h-3.38l-3.41-18.85h-7.49l-3.38,18.85Zm6.36-21.73h7.38l-3.85-28.1ZM324,200.4h2.83v-44l11.19,44h2.33V145.14h-2.76V187L327,145.14l-3,.07Zm33.07,0V145.35h6.86a7,7,0,0,1,3.56.72,8.39,8.39,0,0,1,2.95,4,35.3,35.3,0,0,1,2.36,9.37,99.82,99.82,0,0,1,.76,13.08,107.37,107.37,0,0,1-.51,11.13,52.15,52.15,0,0,1-1.36,8,25.28,25.28,0,0,1-1.81,5,7.68,7.68,0,0,1-2.39,2.81,5.62,5.62,0,0,1-3.23,1Zm2.54-2.27h4.18a6.71,6.71,0,0,0,2.51-1.76,16.43,16.43,0,0,0,2.25-5.18,36,36,0,0,0,1.52-7.7q.3-3.68.73-11.05a98.74,98.74,0,0,0-1.38-15.93,32.23,32.23,0,0,0-2.18-7.45,5.35,5.35,0,0,0-3.52-1.22H359.6Zm34.4-31c0,2.2,1,3.31,3.06,3.31h7.7q2.76,0,2.76,3.45V194.5a7.3,7.3,0,0,1-1.11,4,4.37,4.37,0,0,1-3.69,1.87H395a3.79,3.79,0,0,1-2.76-1.8,5.82,5.82,0,0,1-1.09-3.67V182.84h2.54V193a8.77,8.77,0,0,0,.58,3.59c.39.82,1.29,1.23,2.69,1.23h3.56a3.78,3.78,0,0,0,3.17-1.3,5.47,5.47,0,0,0,1-3.45l-.11-16.26q.12-3.39-3.05-3.46H395q-3.78,0-3.78-4.89V150.89a7.32,7.32,0,0,1,1.11-4A4.37,4.37,0,0,1,396,145h7.7a3.51,3.51,0,0,1,3,1.8,6.77,6.77,0,0,1,.87,3.67v12.09h-2.54V152.4a8.6,8.6,0,0,0-.58-3.59c-.39-.82-1.29-1.23-2.69-1.23h-5a2.21,2.21,0,0,0-2,1.3,7.2,7.2,0,0,0-.71,3.45l0,12.52ZM428,172.05v-7.2l0-12.52a7.2,7.2,0,0,1,.71-3.45,2.21,2.21,0,0,1,2-1.3h5c1.4,0,2.3.41,2.69,1.23a8.6,8.6,0,0,1,.58,3.59v10.15h2.54V150.46a5.28,5.28,0,0,0-1.3-3.67,4.92,4.92,0,0,0-3.57-1.8H430a4.37,4.37,0,0,0-3.69,1.87,7.32,7.32,0,0,0-1.11,4V194.5a7.81,7.81,0,0,0,1,4,4.12,4.12,0,0,0,3.61,1.94H437a4.23,4.23,0,0,0,3.34-1.8,5.88,5.88,0,0,0,1.09-3.67V182.84h-2.55V193a8.6,8.6,0,0,1-.58,3.59c-.38.82-1.28,1.23-2.69,1.23H432c-1.74,0-2.86-.43-3.34-1.3a7.44,7.44,0,0,1-.73-3.6V172.05Zm30.92,28.35,8.47-55.33h3.16l9.12,55.33h-3.38l-3.42-18.85h-7.48L462,200.4Zm6.36-21.73h7.37l-3.85-28.1ZM496,200.4V145.1h9a5.39,5.39,0,0,1,4.13,1.51,11.82,11.82,0,0,1,2.25,5.27,37.69,37.69,0,0,1,.85,8.33,26.59,26.59,0,0,1-1.43,9.54q-1.44,3.63-2.82,4.53a12.83,12.83,0,0,1-4,1.51l-2.18,0h-3.12V200.4Zm2.69-26.77h5.19a8.86,8.86,0,0,0,3.64-2.73,13.45,13.45,0,0,0,1.59-4.32,43.22,43.22,0,0,0,.91-6.73,47.17,47.17,0,0,0-1.34-9.17c-.63-2.26-2.45-3.62-5.45-4.1l-4.54.1ZM530,200.4V145.21h16l0,2.52H532.86v22.84h12.06v2.85H532.86v24.24h13.51l.11,2.74Zm61.42,0,8.46-55.33h3.17l9.12,55.33h-3.38l-3.42-18.85h-7.48l-3.38,18.85Zm6.36-21.73h7.37l-3.85-28.1Zm30.77,21.73V145h9a5.42,5.42,0,0,1,4.13,1.49,11.66,11.66,0,0,1,2.25,5.27,37.88,37.88,0,0,1,.85,8.35,30.37,30.37,0,0,1-1.4,9.93q-1.39,4-4.3,5.11a12.4,12.4,0,0,1,1.6,2.77,56.6,56.6,0,0,1,2.21,7.34l3.56,15.11h-3.37l-2.69-11.55q-1.2-5-2-7.65a17.84,17.84,0,0,0-1.36-3.68,4.43,4.43,0,0,0-1.22-1.48,3.14,3.14,0,0,0-1.49-.25h-3.12V200.4Zm2.69-26.77h5a4.55,4.55,0,0,0,3.42-2.09,16.89,16.89,0,0,0,1.6-4.53,42.66,42.66,0,0,0,.87-7.09,33.23,33.23,0,0,0-1-9.28c-.71-2.32-2.41-3.63-5.13-3.92h-4.68Zm34.15-1.43-.14-4.89-.07-2.3-.32-12.52a7.32,7.32,0,0,1,.61-3.47,2.2,2.2,0,0,1,2-1.35l5-.14c1.4,0,2.31.34,2.72,1.14a8.65,8.65,0,0,1,.68,3.58l.29,10.14,2.54-.07-.34-12.08a5.28,5.28,0,0,0-1.41-3.63,4.89,4.89,0,0,0-3.61-1.7l-6.69.19a4.36,4.36,0,0,0-3.63,2,7.18,7.18,0,0,0-1,4l.06,2.31,1.11,39,.06,2.3a7.84,7.84,0,0,0,1.15,3.93,4.11,4.11,0,0,0,3.67,1.84l7.12-.21a4.16,4.16,0,0,0,3.29-1.89,5.92,5.92,0,0,0,1-3.7l-.35-12.08-2.54.07.29,10.14a8.87,8.87,0,0,1-.48,3.62c-.37.82-1.25,1.25-2.65,1.29l-3.56.11c-1.75,0-2.87-.35-3.38-1.2a7.39,7.39,0,0,1-.83-3.58L665.54,177Zm34.09,1.14V200.4h-2.91V145.14h2.76v25.33h11V145.14h2.47V200.4H710V176.8l.1-3.38-3.16-.08Zm54.65-28.2h16.42v2.59h-7.12V200.4h-2.61V147.73h-6.69Zm-22.09-.07h2.58v55.26H732V147.66Zm56.11,55.33V145.21h16l0,2.52H791v22.84h12.06v2.85H791v24.24h13.51l.11,2.74Zm36.77-28.35v-7.2l0-12.52a7.21,7.21,0,0,1,.7-3.45,2.23,2.23,0,0,1,2-1.3h5c1.4,0,2.3.41,2.68,1.23a8.58,8.58,0,0,1,.59,3.59v10.15h2.54V150.46a5.29,5.29,0,0,0-1.31-3.67,4.9,4.9,0,0,0-3.56-1.8H827a4.34,4.34,0,0,0-3.68,1.87,7.32,7.32,0,0,0-1.11,4V194.5a7.8,7.8,0,0,0,1,4,4.14,4.14,0,0,0,3.62,1.94H834a4.21,4.21,0,0,0,3.34-1.8,5.82,5.82,0,0,0,1.09-3.67V182.84h-2.54V193a8.6,8.6,0,0,1-.58,3.59c-.39.82-1.29,1.23-2.69,1.23H829c-1.75,0-2.86-.43-3.34-1.3a7.33,7.33,0,0,1-.73-3.6V172.05Zm31-26.91h16.43v2.59h-7.12V200.4h-2.62V147.73H856Zm33.95,49.21a7.26,7.26,0,0,0,1.17,4.18c.77,1.15,2.13,1.77,4.07,1.87h6.06c1.94-.1,3.3-.72,4.07-1.87a7.26,7.26,0,0,0,1.17-4.18V145.14h-2.91v47.92a5.41,5.41,0,0,1-1,3.45,3.93,3.93,0,0,1-3.3,1.3h-1.89a4.17,4.17,0,0,1-3.49-1.3,5.41,5.41,0,0,1-1-3.45V145.14h-2.91v49.21Zm34,6.05V145h9a5.4,5.4,0,0,1,4.12,1.49,11.55,11.55,0,0,1,2.25,5.27,37.85,37.85,0,0,1,.86,8.35,30.64,30.64,0,0,1-1.4,9.93q-1.4,4-4.31,5.11A11.67,11.67,0,0,1,936,178a54.94,54.94,0,0,1,2.22,7.34l3.56,15.11h-3.38l-2.69-11.55q-1.2-5-2-7.65a18.46,18.46,0,0,0-1.36-3.68,4.55,4.55,0,0,0-1.22-1.48,3.17,3.17,0,0,0-1.49-.25h-3.13V200.4Zm2.69-26.77h5a4.53,4.53,0,0,0,3.41-2.09,16.55,16.55,0,0,0,1.6-4.53,42.55,42.55,0,0,0,.88-7.09,33.18,33.18,0,0,0-1.06-9.28q-1.05-3.48-5.12-3.92h-4.69ZM957.9,200.4V145.21h16l0,2.52H960.74v22.84H972.8v2.85H960.74v24.24h13.52l.11,2.74Z"/><path class="cls-3" d="M638.5,123.81l-8.23,2.26-10-20.25H596.84l-10.27,20.25-8.4-2.26L608,65Zm-22-25.6-8-16-8.14,16Zm53.36,15.14a11.39,11.39,0,0,1-4.27,9.16,16.1,16.1,0,0,1-10.69,3.56,18.19,18.19,0,0,1-8.24-1.76,19.3,19.3,0,0,1-6.46-5.52l5.74-4.68a14.07,14.07,0,0,0,3.89,3,10,10,0,0,0,4.65,1.13,9.29,9.29,0,0,0,4.9-1.18,4.51,4.51,0,0,0,2.36-4.1q0-4-10.39-6.94T641,94.19a11.38,11.38,0,0,1,4.35-9.08,15.65,15.65,0,0,1,10.35-3.64A16.66,16.66,0,0,1,662.54,83a20.09,20.09,0,0,1,6,4.1l-5,5.61a16.81,16.81,0,0,0-3.76-2.85,8.66,8.66,0,0,0-4.18-1.09,8.09,8.09,0,0,0-4.57,1.3,4.46,4.46,0,0,0-1.94,4q0,3.78,10.39,6.7T669.85,113.35Zm34.74,0a11.39,11.39,0,0,1-4.27,9.16,16.1,16.1,0,0,1-10.69,3.56,18.19,18.19,0,0,1-8.24-1.76,19.3,19.3,0,0,1-6.46-5.52l5.74-4.68a14.07,14.07,0,0,0,3.89,3,10,10,0,0,0,4.65,1.13,9.29,9.29,0,0,0,4.9-1.18,4.51,4.51,0,0,0,2.36-4.1q0-4-10.39-6.94t-10.39-11.8A11.38,11.38,0,0,1,680,85.11a15.65,15.65,0,0,1,10.35-3.64A16.66,16.66,0,0,1,697.28,83a20.09,20.09,0,0,1,6,4.1l-5,5.61a16.81,16.81,0,0,0-3.76-2.85,8.66,8.66,0,0,0-4.18-1.09,8.09,8.09,0,0,0-4.57,1.3,4.46,4.46,0,0,0-1.94,4q0,3.78,10.39,6.7T704.59,113.35ZM756,103.56q0,9.89-6.46,16.19a22.21,22.21,0,0,1-16.19,6.32A22.67,22.67,0,0,1,717,119.71,22.26,22.26,0,0,1,717.13,88a22.27,22.27,0,0,1,16-6.49,22.68,22.68,0,0,1,16.22,6.36A20.87,20.87,0,0,1,756,103.56Zm-8-.08a14.79,14.79,0,1,0-14.7,14.73,14.53,14.53,0,0,0,10.56-4Q748,110.17,748,103.48Zm52.32,15.65a22.14,22.14,0,0,1-16.65,6.94,21.13,21.13,0,0,1-15.63-6.61,21.65,21.65,0,0,1-6.51-15.73,22.2,22.2,0,0,1,6.17-15.65,21.12,21.12,0,0,1,16.14-7,23.57,23.57,0,0,1,8.58,1.61,31.09,31.09,0,0,1,7.9,4.51L795,92.94a21.76,21.76,0,0,0-5.32-3.24,15.32,15.32,0,0,0-5.83-1,14.69,14.69,0,0,0-14.2,14.18A15.1,15.1,0,0,0,774,113.76a14.36,14.36,0,0,0,10.73,4.45A13,13,0,0,0,790.1,117a18.05,18.05,0,0,0,4.9-3.26Zm17.23-47.88-5.07,6.52-5.32-6.52,5.32-6.53Zm-1.27,53.23-7.77,1.09V83.32l7.77-1.18Zm44.61-.08-7.77,1.08v-4.93a12.47,12.47,0,0,1-4.76,4.14,14.28,14.28,0,0,1-6.36,1.38q-7.41,0-12-4.39t-4.59-11.76a14.16,14.16,0,0,1,4.72-10.71,16.8,16.8,0,0,1,12-4.43,17.66,17.66,0,0,1,6,1,14.35,14.35,0,0,1,5,3.22V95.53c0-2.68-1-4.54-3.12-5.6q-2.35-1.19-7.15-1.18a29.12,29.12,0,0,0-6.19.71,31.65,31.65,0,0,0-6.19,2.05l1.78-8.36a59.58,59.58,0,0,1,6.67-1.22,53.63,53.63,0,0,1,6.51-.46q6.93,0,10.9,3.35,4.56,3.86,4.56,11.55Zm-7.43-14.27a6.54,6.54,0,0,0-3.09-5.57,11.25,11.25,0,0,0-6.63-2.17,12.44,12.44,0,0,0-6.84,1.83,6.64,6.64,0,0,0-3.39,5.83c0,2.89,1,5,3,6.41a12.55,12.55,0,0,0,7.27,1.83,11,11,0,0,0,6.8-2.21A7.06,7.06,0,0,0,853.47,110.13Zm39.8,7.68a3.32,3.32,0,0,0,1-.19l-1.52,7.54a5.08,5.08,0,0,1-1.19.16,39.91,39.91,0,0,1-5.4.42q-6.25,0-9.55-3.51-3.55-3.75-3.55-11.35V89.67h-6.59l2.87-7.28h3.72V71.67l7.77-2.1V82.39h11.92v7.28H880.84V110.8q0,7.32,7.61,7.32a36.58,36.58,0,0,0,4.82-.31Zm46.06-24.62-31,18.07a16.41,16.41,0,0,0,4.48,4.85,12.72,12.72,0,0,0,7.27,2.1,20.79,20.79,0,0,0,8.87-2,43,43,0,0,0,7.69-4.94l1.69,8.28a35.77,35.77,0,0,1-8.58,4.86,25.64,25.64,0,0,1-9.25,1.67,22.71,22.71,0,0,1-16.39-6.44,21.14,21.14,0,0,1-6.68-15.82,22.4,22.4,0,0,1,22.48-22.34,22,22,0,0,1,11.49,3.18A20.11,20.11,0,0,1,939.33,93.19Zm-11.69-1.54a11,11,0,0,0-7.76-2.9,14.53,14.53,0,0,0-14.36,14.36l0,1.51Zm45.82,21.7a11.39,11.39,0,0,1-4.27,9.16,16.1,16.1,0,0,1-10.69,3.56,18.19,18.19,0,0,1-8.24-1.76,19.3,19.3,0,0,1-6.46-5.52l5.74-4.68a14.07,14.07,0,0,0,3.89,3,10,10,0,0,0,4.65,1.13A9.29,9.29,0,0,0,963,117a4.51,4.51,0,0,0,2.36-4.1q0-4-10.39-6.94t-10.39-11.8a11.38,11.38,0,0,1,4.35-9.08,15.65,15.65,0,0,1,10.35-3.64A16.66,16.66,0,0,1,966.15,83a20.09,20.09,0,0,1,6,4.1l-5,5.61a16.81,16.81,0,0,0-3.76-2.85,8.66,8.66,0,0,0-4.18-1.09,8.09,8.09,0,0,0-4.57,1.3,4.46,4.46,0,0,0-1.94,4q0,3.78,10.39,6.7T973.46,113.35Z"/><path class="cls-4" d="M282.51,96.09q7.28,4.36,7.27,13.25a15.32,15.32,0,0,1-5.7,12.15,19.79,19.79,0,0,1-13.23,4.86,22.93,22.93,0,0,1-10.26-2.27,23.64,23.64,0,0,1-8.16-6.82l6.42-5.39A23.3,23.3,0,0,0,264,116.7a12.67,12.67,0,0,0,6.84,1.78A11.52,11.52,0,0,0,278,116.3a8,8,0,0,0,3.21-6.78q0-5.44-7.19-8.3-6.75-2.52-13.43-5.11-7.27-4.27-7.27-13.16a13.94,13.94,0,0,1,5.49-11.69A21.64,21.64,0,0,1,272.46,67a19.81,19.81,0,0,1,9,2.13,20.76,20.76,0,0,1,7.18,6l-5.91,6a19.11,19.11,0,0,0-4.9-4.6A13.29,13.29,0,0,0,271.19,75a10.57,10.57,0,0,0-6.59,2,6.8,6.8,0,0,0-2.7,5.74q0,5.19,6.92,8t13.69,5.36Zm55-3-31,18.07A16.55,16.55,0,0,0,311,116a12.75,12.75,0,0,0,7.27,2.1,20.76,20.76,0,0,0,8.87-2,42.63,42.63,0,0,0,7.69-4.94l1.69,8.28a35.77,35.77,0,0,1-8.58,4.86,25.64,25.64,0,0,1-9.25,1.67,22.71,22.71,0,0,1-16.39-6.44,21.14,21.14,0,0,1-6.68-15.82,22.4,22.4,0,0,1,22.48-22.34,22,22,0,0,1,11.49,3.18A20.11,20.11,0,0,1,337.53,93.05Zm-11.68-1.54a11,11,0,0,0-7.77-2.9A14.51,14.51,0,0,0,303.73,103l0,1.51Zm45.47-10.09-3.8,7.78h-1.35q-6.93,0-10.06,5.35-2.62,4.44-2.62,12.14v17.65l-7.77,1.09V83.18L353.49,82v8.62a18,18,0,0,1,5.79-7.11,14.7,14.7,0,0,1,8.58-2.43,17.15,17.15,0,0,1,1.73.09A16,16,0,0,1,371.32,81.42ZM419,138.48l-7.6.92v-20a20.3,20.3,0,0,1-15.2,6.53,20.58,20.58,0,0,1-15.66-6.65,22.39,22.39,0,0,1-6.24-15.86,21.67,21.67,0,0,1,6.32-15.52,21.46,21.46,0,0,1,23.56-5,26.68,26.68,0,0,1,7.22,4.69V83.09l7.6-1.17Zm-7.6-35A14.14,14.14,0,0,0,407,92.8a15.19,15.19,0,0,0-10.9-4.19,12.63,12.63,0,0,0-9.67,4.4,14.49,14.49,0,0,0-4,10.08,15.33,15.33,0,0,0,3.89,10.71,12.62,12.62,0,0,0,9.72,4.27,15.26,15.26,0,0,0,11.11-4.15A13.92,13.92,0,0,0,411.39,103.51Zm55.51,20.75-7.78,1.08v-5.85a20.63,20.63,0,0,1-6.06,4.89,16.42,16.42,0,0,1-7.42,1.55q-6.52,0-10.42-4-4.16-4.26-4.15-11.63V83.09l7.77-1.17v28.36a7,7,0,0,0,2.55,5.69,9.9,9.9,0,0,0,6.53,2.1,10.2,10.2,0,0,0,8.23-3.52q3-3.51,3-9.54V83.09l7.78-1.17Zm21-53.15-5.07,6.52-5.33-6.52,5.33-6.53Zm-1.27,53.23-7.78,1.09V83.18L486.58,82Zm37.95-11.13a11.36,11.36,0,0,1-4.27,9.16,16.05,16.05,0,0,1-10.68,3.56,18.16,18.16,0,0,1-8.24-1.76,19.33,19.33,0,0,1-6.47-5.52l5.75-4.68a14,14,0,0,0,3.88,3,10.1,10.1,0,0,0,4.65,1.13,9.26,9.26,0,0,0,4.9-1.18,4.5,4.5,0,0,0,2.37-4.1q0-4-10.39-6.94t-10.4-11.8A11.38,11.38,0,0,1,500,85a15.65,15.65,0,0,1,10.36-3.64,16.61,16.61,0,0,1,6.88,1.51,20.13,20.13,0,0,1,6,4.1l-5,5.61a16.59,16.59,0,0,0-3.76-2.85,8.61,8.61,0,0,0-4.18-1.09,8,8,0,0,0-4.56,1.3,4.45,4.45,0,0,0-1.95,4q0,3.78,10.4,6.7T524.53,113.21Z"/><path class="cls-5" d="M95.12,112C71.2,90,43.06,67.42,9.9,44.17v1.45c33.49,23.47,61.41,46.61,85.22,70Z"/><path class="cls-5" d="M95.12,108.47A731.93,731.93,0,0,0,31,35.82H29.26C55.74,62.41,77.32,88.23,95.12,113.7Z"/><path class="cls-5" d="M95.12,74.32C86.56,61.86,77.21,49,66.86,35.82H65.2c11.12,14.36,21,28.37,29.92,42.28Z"/><rect class="cls-6" x="9.9" y="135.18" width="85.22" height="85.11"/><rect class="cls-6" x="109.36" y="35.82" width="85.11" height="85.11"/><rect class="cls-6" x="9.96" y="35.55" width="85.11" height="85.11"/><path class="cls-5" d="M124.05,120.93c-4.56-8.12-9.46-16.46-14.69-24.92v5.45c3.67,6.57,7.23,13,10.57,19.47Z"/><rect class="cls-6" x="109.36" y="135.18" width="85.11" height="85.11"/><path class="cls-7" d="M180.9,51c-3.12,1.89,3.45,5.89,4.23,7.12,0,0,5.89,3,4.11,3.78s-.66,2.56-2.67,1.89c-10.45-3.89-4.45,4.67-1.33,4,1.67-.33,5,4.9.33,5.9-2,.45-26.36-4.78-24-3.11,3.56,2.44,26.15,9,22.47,11.68-1.44,1-24.47-9.46-23.14-4.9,1.78,6.23,27.6,6.79,30.27,17.47.55,2-16.14-4.45-15.69-3.89,6.67,9.9-2,4.67-6.45,5.11s14.35,8,14.79,9.9c.78,2.9-8.79,16.47-10.23,11s-10.46-5-10.79-9.79c-.45-4.56,15.24,3.56,15.13,2.33-.23-6.34-20.14-12.79-26.15-17.57-3-2.34-2.89-7.12,2.67-4.45,2.67,1.33,10,5.67,12.68,3.56,3.9-3.34-21.25-12.24-26.25-16.69-1.45-1.23-12.68-9.24-1.56-10.68,11.68-1.56,36.6,2.11,36.6,1.56C175.34,62,172,61.75,169.11,61c-7.46-1.78-46.51-6.9-38.27-9.35s21.25.67,34.26,2.45c4.34.56,8.24,2,7.9.67s1.45-1.67-.33-3.34c-2-2-29.71-6-28.82-8s3.56-3,7-3.67c1.23-.34-1.78-2.67-1.78-2.67-4-1.67-15.8-1.11-14-3.78,2-2.79,20.47,2.33,14.8-1.34-7.45-4.89-24-10.68-26.14-13v-.78h.11c6.67-4.22,27.14,11.24,27.92,6.12.34-2.11-6.9-5-7.45-6.67C139.07,3.78,203.48,36.49,180.9,51m-4.78,68.64v0Z"/><path class="cls-8" d="M204.49,254.22c-16.36-33.49-38.5-67.65-70-102.58-4.9-5.34-9.9-10.79-15.24-16.24h-5l3.56,3.89c31,34.49,62.3,82.44,78.54,115.6ZM95.12,112C68.76,87.89,37.49,63,0,37.16l3,3.56c36.5,25.14,66.76,50,92.12,74.87Z"/><path class="cls-8" d="M171.11,254c-10.35-35.37-26.37-72.09-51.51-110.92-1.67-2.55-3.34-5.11-5.12-7.67h-5c23,37.38,43.84,85.11,53.52,118.15Zm-76-145.52C72,78.1,42.83,46.06,6.34,11.79l2.34,4c36.16,33.82,64.19,66.08,86.44,97.79Z"/><path class="cls-8" d="M172.89,256.11c-6.12-36.16-17.8-74.1-38.27-115-.89-1.89-1.89-3.78-2.78-5.67h-4.9c17.91,38.83,32.27,86.55,37.94,119.48ZM124.16,121.05c-4.56-8.13-9.46-16.36-14.69-24.81v5.45c3.68,6.45,7.24,13,10.46,19.36Zm-29-46.73A870.39,870.39,0,0,0,37.49,0l1.89,4.12a670.23,670.23,0,0,1,55.74,74Z"/></svg>